<?xml version="1.0" encoding="UTF-8" standalone="no"?>
<!-- Created with Inkscape (http://www.inkscape.org/) -->

<svg
   xmlns:dc="http://purl.org/dc/elements/1.1/"
   xmlns:cc="http://creativecommons.org/ns#"
   xmlns:rdf="http://www.w3.org/1999/02/22-rdf-syntax-ns#"
   xmlns:svg="http://www.w3.org/2000/svg"
   xmlns="http://www.w3.org/2000/svg"
   xmlns:inkscape="http://www.inkscape.org/namespaces/inkscape"
   version="1.1"
   viewBox="0 0 595 115"
   style="width: 15%; height: 15%;"
   id="svg2"
   xml:space="preserve"><metadata
     id="metadata8"><rdf:RDF><cc:Work
         rdf:about=""><dc:format>image/svg+xml</dc:format><dc:type
           rdf:resource="http://purl.org/dc/dcmitype/StillImage" /></cc:Work></rdf:RDF></metadata><defs
     id="defs6" /><g
     transform="matrix(1.25,0,0,-1.25,0,114.8)"
     id="g10"><g
       transform="scale(0.1,0.1)"
       id="g12"><path
         d="m 1589.53,916.359 0,-101.691 c 0,-16.75 11.96,-30.715 34.49,-30.715 22.53,0 34.5,13.965 34.5,30.715 l 0,101.691 15.95,0 0,-100.5 c 0,-28.711 -20.74,-45.457 -50.45,-45.457 -29.7,0 -50.45,16.746 -50.45,45.457 l 0,100.5 15.96,0"
         inkscape:connector-curvature="0"
         id="path14"
         style="fill:#3067ba;fill-opacity:1;fill-rule:nonzero;stroke:none" /><path
         d="m 1742.66,772.395 0,143.964 22.94,0 62.81,-110.863 0.79,0 0,110.863 14.35,0 0,-143.964 -13.15,0 -72.99,128.417 -0.39,0 0,-128.417 -14.36,0"
         inkscape:connector-curvature="0"
         id="path16"
         style="fill:#3067ba;fill-opacity:1;fill-rule:nonzero;stroke:none" /><path
         d="m 1915.34,772.395 15.957,0 0,143.965 -15.957,0 0,-143.965 z"
         inkscape:connector-curvature="0"
         id="path18"
         style="fill:#3067ba;fill-opacity:1;fill-rule:nonzero;stroke:none" /><path
         d="m 1985.33,916.359 15.95,0 35.5,-118.047 0.4,0 35.69,118.047 16.15,0 -44.66,-143.964 -14.57,0 -44.46,143.964"
         inkscape:connector-curvature="0"
         id="path20"
         style="fill:#3067ba;fill-opacity:1;fill-rule:nonzero;stroke:none" /><path
         d="m 2225.61,916.359 0,-13.554 -70.39,0 0,-48.254 50.05,0 0,-13.563 -50.05,0 0,-55.031 74.38,0 0,-13.562 -90.33,0 0,143.964 86.34,0"
         inkscape:connector-curvature="0"
         id="path22"
         style="fill:#3067ba;fill-opacity:1;fill-rule:nonzero;stroke:none" /><path
         d="m 2284.63,772.395 0,143.964 46.26,0 c 31.11,0 48.06,-13.957 48.06,-37.882 0,-20.344 -11.76,-31.903 -28.72,-37.489 l 30.51,-68.593 -17.34,0 -29.12,65.398 -33.69,0 0,-65.398 -15.96,0 z m 15.96,78.964 28.9,0 c 21.94,0 33.51,8.172 33.51,26.317 0,19.347 -13.17,25.129 -33.7,25.129 l -28.71,0 0,-51.446"
         inkscape:connector-curvature="0"
         id="path24"
         style="fill:#3067ba;fill-opacity:1;fill-rule:nonzero;stroke:none" /><path
         d="m 2512.15,879.668 c -3.6,13.965 -14.95,25.125 -33.5,25.125 -16.76,0 -26.72,-7.977 -26.92,-22.332 -0.4,-31.504 80.95,-23.523 80.95,-69.785 0,-20.938 -11.76,-42.274 -48.45,-42.274 -31.51,0 -43.87,20.34 -51.45,37.489 l 14.56,5.175 c 5.78,-15.148 16.55,-29.113 37.69,-29.113 21.13,0 31.71,11.172 31.71,25.93 0,36.691 -80.97,25.918 -80.97,71.387 0,20.73 17.35,37.089 43.27,37.089 22.34,0 39.89,-11.769 47.46,-35.496 l -14.35,-3.195"
         inkscape:connector-curvature="0"
         id="path26"
         style="fill:#3067ba;fill-opacity:1;fill-rule:nonzero;stroke:none" /><path
         d="m 2594.9,772.395 15.9453,0 0,143.965 -15.9453,0 0,-143.965 z"
         inkscape:connector-curvature="0"
         id="path28"
         style="fill:#3067ba;fill-opacity:1;fill-rule:nonzero;stroke:none" /><path
         d="m 2724.71,902.805 0,-130.41 -15.96,0 0,130.41 -43.07,0 0,13.554 102.09,0 0,-13.554 -43.06,0"
         inkscape:connector-curvature="0"
         id="path30"
         style="fill:#3067ba;fill-opacity:1;fill-rule:nonzero;stroke:none" /><path
         d="m 2844.75,833.008 -44.27,83.351 17.55,0 34.69,-65.996 34.7,65.996 17.54,0 -44.27,-83.351 0,-60.613 -15.94,0 0,60.613"
         inkscape:connector-curvature="0"
         id="path32"
         style="fill:#3067ba;fill-opacity:1;fill-rule:nonzero;stroke:none" /><path
         d="m 3085.61,918.359 c 35.3,0 56.24,-25.925 56.24,-73.984 0,-48.055 -20.94,-73.973 -56.24,-73.973 -35.29,0 -56.22,25.918 -56.22,73.973 0,48.059 20.93,73.984 56.22,73.984 z m 0,-134.406 c 25.33,0 40.29,19.543 40.29,60.422 0,40.879 -14.96,60.418 -40.29,60.418 -25.32,0 -40.27,-19.539 -40.27,-60.418 0,-40.879 14.95,-60.422 40.27,-60.422"
         inkscape:connector-curvature="0"
         id="path34"
         style="fill:#3067ba;fill-opacity:1;fill-rule:nonzero;stroke:none" /><path
         d="m 3282.62,916.359 0,-13.554 -69.39,0 0,-48.254 51.45,0 0,-13.563 -51.45,0 0,-68.593 -15.94,0 0,143.964 85.33,0"
         inkscape:connector-curvature="0"
         id="path36"
         style="fill:#3067ba;fill-opacity:1;fill-rule:nonzero;stroke:none" /><path
         d="m 3513.33,815.469 c -6.38,-26.727 -21.13,-45.067 -50.65,-45.067 -32.3,0 -55.04,23.524 -55.04,73.973 0,46.867 20.35,73.984 55.04,73.984 26.72,0 42.28,-15.554 48.66,-41.875 l -14.76,-4.394 c -5.19,20.344 -14.35,32.703 -35.89,32.703 -20.74,0 -37.09,-19.137 -37.09,-60.418 0,-41.672 16.35,-60.422 40.28,-60.422 22.14,0 30.71,16.75 35.09,34.297 l 14.36,-2.781"
         inkscape:connector-curvature="0"
         id="path38"
         style="fill:#3067ba;fill-opacity:1;fill-rule:nonzero;stroke:none" /><path
         d="m 3551.02,772.395 44.26,143.964 23.74,0 44.26,-143.964 -16.75,0 -13.56,45.066 -51.64,0 -13.56,-45.066 -16.75,0 z m 34.29,58.621 43.67,0 -20.73,74.179 -2.2,0 -20.74,-74.179"
         inkscape:connector-curvature="0"
         id="path40"
         style="fill:#3067ba;fill-opacity:1;fill-rule:nonzero;stroke:none" /><path
         d="m 3714.73,772.395 0,143.964 15.95,0 0,-130.402 68.2,0 0,-13.562 -84.15,0"
         inkscape:connector-curvature="0"
         id="path42"
         style="fill:#3067ba;fill-opacity:1;fill-rule:nonzero;stroke:none" /><path
         d="m 3854.3,772.395 15.9609,0 0,143.965 -15.9609,0 0,-143.965 z"
         inkscape:connector-curvature="0"
         id="path44"
         style="fill:#3067ba;fill-opacity:1;fill-rule:nonzero;stroke:none" /><path
         d="m 4025.98,916.359 0,-13.554 -69.38,0 0,-48.254 51.45,0 0,-13.563 -51.45,0 0,-68.593 -15.96,0 0,143.964 85.34,0"
         inkscape:connector-curvature="0"
         id="path46"
         style="fill:#3067ba;fill-opacity:1;fill-rule:nonzero;stroke:none" /><path
         d="m 4123.1,918.359 c 35.29,0 56.23,-25.925 56.23,-73.984 0,-48.055 -20.94,-73.973 -56.23,-73.973 -35.3,0 -56.24,25.918 -56.24,73.973 0,48.059 20.94,73.984 56.24,73.984 z m 0,-134.406 c 25.32,0 40.28,19.543 40.28,60.422 0,40.879 -14.96,60.418 -40.28,60.418 -25.33,0 -40.28,-19.539 -40.28,-60.418 0,-40.879 14.95,-60.422 40.28,-60.422"
         inkscape:connector-curvature="0"
         id="path48"
         style="fill:#3067ba;fill-opacity:1;fill-rule:nonzero;stroke:none" /><path
         d="m 4234.76,772.395 0,143.964 46.26,0 c 31.11,0 48.05,-13.957 48.05,-37.882 0,-20.344 -11.75,-31.903 -28.71,-37.489 l 30.51,-68.593 -17.34,0 -29.12,65.398 -33.7,0 0,-65.398 -15.95,0 z m 15.95,78.964 28.91,0 c 21.93,0 33.5,8.172 33.5,26.317 0,19.347 -13.16,25.129 -33.69,25.129 l -28.72,0 0,-51.446"
         inkscape:connector-curvature="0"
         id="path50"
         style="fill:#3067ba;fill-opacity:1;fill-rule:nonzero;stroke:none" /><path
         d="m 4394.47,772.395 0,143.964 22.94,0 62.81,-110.863 0.8,0 0,110.863 14.35,0 0,-143.964 -13.15,0 -72.99,128.417 -0.39,0 0,-128.417 -14.37,0"
         inkscape:connector-curvature="0"
         id="path52"
         style="fill:#3067ba;fill-opacity:1;fill-rule:nonzero;stroke:none" /><path
         d="m 4567.16,772.395 15.957,0 0,143.965 -15.957,0 0,-143.965 z"
         inkscape:connector-curvature="0"
         id="path54"
         style="fill:#3067ba;fill-opacity:1;fill-rule:nonzero;stroke:none" /><path
         d="m 4638.34,772.395 44.27,143.964 23.73,0 44.27,-143.964 -16.75,0 -13.57,45.066 -51.64,0 -13.56,-45.066 -16.75,0 z m 34.3,58.621 43.67,0 -20.73,74.179 -2.2,0 -20.74,-74.179"
         inkscape:connector-curvature="0"
         id="path56"
         style="fill:#3067ba;fill-opacity:1;fill-rule:nonzero;stroke:none" /><path
         d="m 1573.57,9.90234 122.91,0 0,715.555 -122.91,0 0,-715.555 z"
         inkscape:connector-curvature="0"
         id="path58"
         style="fill:#3067ba;fill-opacity:1;fill-rule:nonzero;stroke:none" /><path
         d="m 2081.59,725.457 120.9,0 -149.67,-715.55466 -122.89,0 -149.63,715.55466 120.88,0 89.2,-496.531 2.01,0 89.2,496.531"
         inkscape:connector-curvature="0"
         id="path60"
         style="fill:#3067ba;fill-opacity:1;fill-rule:nonzero;stroke:none" /><path
         d="m 2283.06,9.90234 0,715.55466 329.13,0 0,-107.047 -206.21,0 0,-184.355 158.65,0 0,-106.985 -158.65,0 0,-210.136 220.09,0 0,-107.03166 -343.01,0"
         inkscape:connector-curvature="0"
         id="path62"
         style="fill:#3067ba;fill-opacity:1;fill-rule:nonzero;stroke:none" /><path
         d="m 2844.63,9.90234 -122.87,0 0,715.55466 172.46,0 c 137.74,0 208.1,-58.473 208.1,-211.109 0,-115.012 -44.59,-161.536 -86.2,-180.325 l 104.06,-324.12066 -124.89,0 -87.22,296.32766 c -15.84,-1.953 -41.64,-2.949 -63.44,-2.949 l 0,-293.37866 z m 0,394.43366 43.63,0 c 66.39,0 91.19,24.777 91.19,110.012 0,85.23 -24.8,110 -91.19,110 l -43.63,0 0,-220.012"
         inkscape:connector-curvature="0"
         id="path64"
         style="fill:#3067ba;fill-opacity:1;fill-rule:nonzero;stroke:none" /><path
         d="m 3431.89,549.004 c -4.94,61.453 -37.65,79.324 -65.41,79.324 -39.66,0 -61.44,-25.781 -61.44,-70.348 0,-121.933 249.76,-180.39 249.76,-374.601 C 3554.8,65.4102 3475.51,0 3360.53,0 3246.54,0 3181.13,91.2109 3176.21,198.242 l 116.91,16.836 c 4.97,-72.363 33.7,-108.047 73.36,-108.047 42.62,0 71.37,22.813 71.37,65.41 0,141.739 -249.78,179.414 -249.78,384.52 0,113.969 69.41,178.402 190.31,178.402 100.12,0 159.55,-72.367 170.47,-173.48 l -116.96,-12.879"
         inkscape:connector-curvature="0"
         id="path66"
         style="fill:#3067ba;fill-opacity:1;fill-rule:nonzero;stroke:none" /><path
         d="m 3661.19,9.90234 122.891,0 0,715.555 -122.891,0 0,-715.555 z"
         inkscape:connector-curvature="0"
         id="path68"
         style="fill:#3067ba;fill-opacity:1;fill-rule:nonzero;stroke:none" /><path
         d="m 3921.29,725.457 182.38,0 c 126.87,0 194.24,-69.391 194.24,-216.07 l 0,-283.41 C 4297.91,79.2773 4230.54,9.90234 4103.67,9.90234 l -182.38,0 0,715.55466 z m 122.91,-614.441 42.6,0 c 65.43,0 88.22,24.765 88.22,100.097 l 0,313.157 c 0,75.308 -22.79,100.078 -88.22,100.078 l -42.6,0 0,-513.332"
         inkscape:connector-curvature="0"
         id="path70"
         style="fill:#3067ba;fill-opacity:1;fill-rule:nonzero;stroke:none" /><path
         d="m 4419.02,9.90234 0,715.55466 329.05,0 0,-107.047 -206.16,0 0,-184.355 158.6,0 0,-106.985 -158.6,0 0,-210.136 220.02,0 0,-107.03166 -342.91,0"
         inkscape:connector-curvature="0"
         id="path72"
         style="fill:#3067ba;fill-opacity:1;fill-rule:nonzero;stroke:none" /><path
         d="m 0,726.164 121.52,0 0,-534.055 c 0,-51.933 20.578,-77.421 64.679,-77.421 44.098,0 64.68,25.488 64.68,77.421 l 0,534.055 121.519,0 0,-529.152 C 372.398,75.4883 301.84,8.84766 186.199,8.84766 70.5625,8.84766 0,75.4883 0,197.012 l 0,529.152"
         inkscape:connector-curvature="0"
         id="path74"
         style="fill:#fab20b;fill-opacity:1;fill-rule:nonzero;stroke:none" /><path
         d="m 735,489.98 0,54.883 c 0,59.778 -27.441,85.254 -58.801,85.254 -48.996,0 -64.679,-25.476 -64.679,-78.398 l 0,-358.633 c 0,-52.91 15.683,-78.398 64.679,-78.398 44.098,0 58.801,25.488 58.801,71.542 l 0,85.254 121.52,0 0,-81.328 C 856.52,90.1953 797.719,8.84766 676.199,8.84766 548.801,8.84766 490,90.1953 490,190.156 l 0,364.504 c 0,99.961 58.801,181.297 186.199,181.297 121.52,0 180.321,-88.191 180.321,-194.031 l 0,-51.946 -121.52,0"
         inkscape:connector-curvature="0"
         id="path76"
         style="fill:#fab20b;fill-opacity:1;fill-rule:nonzero;stroke:none" /><path
         d="m 1134.71,917.926 -156.456,0 0,-908.66819 156.046,0 0,372.51919 m 217.73,39.043 c 52.82,23.887 109.45,83.028 109.45,229.028 0,193.828 -89.32,268.078 -264.25,268.078 l -57.39,0 25.19,-157.785 93.39,143.789 -57.35,-172.227 155.15,94.238 -126.41,-130.253 221.25,25.917 -211.01,-70.839 202.69,-72.016 -212.93,27.129 126.41,-130.332 -155.15,94.258 57.35,-172.227 -92.46,142.383 -26.05,-158.145 c 26.4,0.157 56.14,1.407 74.91,3.731 l 110.77,-376.28919 158.53,0 L 1352.03,420.82"
         inkscape:connector-curvature="0"
         id="path78"
         style="fill:#3067ba;fill-opacity:1;fill-rule:nonzero;stroke:none" /></g></g></svg>
